<?xml version="1.0" encoding="UTF-8"?>
<svg version="1.1" xmlns="http://www.w3.org/2000/svg" width="2001" height="2001">
<path d="M0 0 C4.94331296 2.11751958 8.1839206 4.89285708 11.6875 8.875 C12.20441406 9.45161377 12.72132813 10.02822754 13.25390625 10.62231445 C14.3243646 11.82250061 15.38994935 13.02705087 16.45068359 14.23583984 C17.88852937 15.87307173 19.34306219 17.49376626 20.80078125 19.11328125 C32.4949603 32.30741625 41.85351162 47.4069178 50 63 C50.59095459 64.11689209 50.59095459 64.11689209 51.19384766 65.25634766 C62.39312887 86.6827965 70.28028308 110.10688662 74 134 C74.21011719 135.17691406 74.42023438 136.35382813 74.63671875 137.56640625 C81.00433928 177.26242359 76.70024504 223.75313235 64 262 C63.64808594 263.06702148 63.29617188 264.13404297 62.93359375 265.23339844 C49.25913943 306.12928769 29.91774813 343.52368928 4 378 C3.54786133 378.60908203 3.09572266 379.21816406 2.62988281 379.84570312 C-2.48002581 386.727504 -7.86790056 393.24624301 -13.7109375 399.5234375 C-15.64583216 401.61682183 -17.48576906 403.75082207 -19.3125 405.9375 C-23.88266123 411.19265027 -29.129078 415.76351662 -34.28271484 420.43115234 C-35.95060031 421.95487029 -37.59749869 423.49796023 -39.23828125 425.05078125 C-46.80457319 432.19402662 -54.66237106 438.77442583 -63 445 C-63.9583374 445.71905518 -63.9583374 445.71905518 -64.93603516 446.45263672 C-89.26805043 464.56282134 -116.97888819 479.10560244 -146 488 C-147.01562012 488.31638428 -147.01562012 488.31638428 -148.05175781 488.63916016 C-159.37639627 492.10779006 -171.12428279 494.21958183 -183 494 C-179.95291702 489.71432718 -176.44752044 487.02999447 -172.0625 484.25 C-170.707834 483.3666507 -169.35367572 482.48252234 -168 481.59765625 C-167.32453125 481.15953613 -166.6490625 480.72141602 -165.953125 480.27001953 C-155.04279432 473.17557701 -144.97156202 465.33989648 -135 457 C-134.04480469 456.20360107 -134.04480469 456.20360107 -133.0703125 455.39111328 C-122.94767237 446.9249529 -113.63119773 438.26034051 -105.36328125 427.921875 C-103.34329636 425.42443914 -101.27085975 422.98737509 -99.16381836 420.56347656 C-82.22588789 400.96627571 -69.03402124 379.38639307 -58 356 C-57.6704834 355.3090625 -57.3409668 354.618125 -57.00146484 353.90625 C-48.7520456 336.48423404 -42.57656631 318.59186329 -39.421875 299.546875 C-39.14285801 297.86243912 -38.85137784 296.18001569 -38.546875 294.5 C-33.93302488 268.72607862 -33.27686152 240.41185674 -40.44873047 215.12158203 C-41.234284 212.09834901 -41.63699962 209.10010669 -42 206 C-44.83681532 206 -45.88561339 207.33551541 -48.125 209.0625 C-91.58626154 239.92810181 -161.70967721 233.23180194 -212 233 C-211.2931497 228.80358664 -210.6066415 227.13939971 -207.3125 224.375 C-206.49910156 223.68535156 -205.68570312 222.99570312 -204.84765625 222.28515625 C-202.82817996 220.66458885 -200.80124239 219.06980201 -198.74609375 217.49609375 C-173.8904382 198.45592279 -152.57922251 172.66879579 -147 141 C-146.67402187 136.07310209 -146.71205515 131.18467509 -146.8125 126.25 C-146.82603516 124.96867188 -146.83957031 123.68734375 -146.85351562 122.3671875 C-146.88847295 119.24433305 -146.9375391 116.12240459 -147 113 C-145.68116821 112.94054199 -145.68116821 112.94054199 -144.33569336 112.87988281 C-102.53645475 110.90747528 -53.4970734 105.42535091 -22.9296875 73.3359375 C-4.66124 51.22150105 -1.86471195 27.76981267 0 0 Z " fill="#83B34B" transform="translate(1419,732)"/>
<path d="M0 0 C0.01458252 0.6077124 0.02916504 1.2154248 0.04418945 1.84155273 C0.79967305 30.18420064 4.69841706 52.74563519 25 74 C25.52851562 74.60328125 26.05703125 75.2065625 26.6015625 75.828125 C55.50690525 107.54988577 106.49435585 109.37417069 146 112 C145.97905273 112.76441406 145.95810547 113.52882813 145.93652344 114.31640625 C145.15992907 146.99235137 152.83089616 171.29050213 175.32495117 195.16796875 C176.87551456 196.786377 178.43626191 198.39432442 180 200 C180.53560547 200.55606934 181.07121094 201.11213867 181.62304688 201.68505859 C187.95136155 208.24099695 194.40491194 214.31984225 201.546875 220 C210.40816327 227.2244898 210.40816327 227.2244898 212 232 C105.31407444 232.96851748 105.31407444 232.96851748 64.6875 217.1875 C63.15790649 216.60246704 63.15790649 216.60246704 61.59741211 216.00561523 C55.21709299 213.39235185 50.21109845 210.14838627 44.97192383 205.6652832 C43.10002558 203.95192431 43.10002558 203.95192431 41 203 C40.89042969 203.83660156 40.78085937 204.67320312 40.66796875 205.53515625 C39.62093804 213.22189392 38.30853411 220.74616978 36.68359375 228.33203125 C28.50638656 272.20858871 40.37315162 319.36487268 59 359 C59.29422852 359.64291992 59.58845703 360.28583984 59.89160156 360.94824219 C70.84514651 384.81881984 86.14774135 406.80173773 104 426 C105.1292212 427.30887002 106.2543594 428.6212759 107.375 429.9375 C113.70174783 437.18903928 120.61215494 443.98607739 127.9453125 450.21484375 C129.43007028 451.50483293 130.87931116 452.83609078 132.3046875 454.19140625 C140.57951488 462.02608324 149.68543418 468.47007121 159 475 C160.34578125 475.94721924 160.34578125 475.94721924 161.71875 476.91357422 C171.8003843 484.0425092 171.8003843 484.0425092 182 491 C182 491.66 182 492.32 182 493 C156.75008637 491.06657804 132.37602356 485.01653732 109.97998047 473.04443359 C108.02399052 472.01265492 106.05045709 471.02734079 104.06640625 470.05078125 C84.67026242 460.3632929 66.90384349 447.50148743 50 434 C49.46600586 433.57638184 48.93201172 433.15276367 48.38183594 432.71630859 C45.21081915 430.19442 42.09059824 427.61964994 39 425 C38.20851563 424.33226562 37.41703125 423.66453125 36.6015625 422.9765625 C25.26649484 413.10881751 15.34323176 401.7362252 6 390 C4.50134328 388.18638916 3.00132171 386.37390536 1.5 384.5625 C-0.00470751 382.71215156 -1.50473669 380.85798861 -3 379 C-3.70769531 378.1234375 -4.41539062 377.246875 -5.14453125 376.34375 C-10.42684188 369.56716411 -14.84355126 362.45580444 -19.19750977 355.06005859 C-23.06499561 348.50063676 -27.1215358 342.08518295 -31.25 335.6875 C-61.81881741 287.84548902 -80.74219027 225.10909299 -78 168 C-77.96422852 167.1740332 -77.92845703 166.34806641 -77.89160156 165.49707031 C-76.33244401 132.8458074 -69.50079733 99.4259764 -55 70 C-54.63567871 69.23381348 -54.27135742 68.46762695 -53.89599609 67.67822266 C-47.74896124 54.79405877 -40.06552766 43.98256601 -31 33 C-29.86563182 31.60412738 -28.73278793 30.20701449 -27.6015625 28.80859375 C-25.97332886 26.79675239 -24.34290823 24.78708725 -22.7019043 22.78564453 C-20.05679523 19.55883099 -17.45237335 16.31081328 -14.91796875 12.99609375 C-14.42578857 12.35510742 -13.9336084 11.71412109 -13.42651367 11.05371094 C-12.5066162 9.85027156 -11.59347079 8.64162611 -10.6887207 7.42675781 C-7.91627284 3.80661711 -4.88970598 0 0 0 Z " fill="#83B34B" transform="translate(582,733)"/>
<path d="M0 0 C0.08636719 0.79921875 0.17273438 1.5984375 0.26171875 2.421875 C1.76904055 14.20387656 5.25883415 23.92860995 13 33 C13.82564453 34.05767578 13.82564453 34.05767578 14.66796875 35.13671875 C35.14853927 60.15882303 71.27349879 67.60350117 101.74951172 70.93310547 C114.46437015 72.19514419 127.23362037 72.60914382 140 73 C140.09498779 73.98057373 140.18997559 74.96114746 140.2878418 75.97143555 C143.16509008 105.28004462 147.13834572 133.72454779 161.15161133 160.17358398 C162 162 162 162 162 165 C160.2315332 165.3456689 158.46000599 165.6756787 156.6875 166 C155.70136719 166.185625 154.71523438 166.37125 153.69921875 166.5625 C142.83681054 167.84717763 132.05884289 166.45413346 121.25 165.25 C120.43418457 165.16041016 119.61836914 165.07082031 118.77783203 164.97851562 C76.46090616 160.30334497 76.46090616 160.30334497 57 151 C60.56614451 199.05926878 89.55104424 245.09448518 118.5 282.0625 C118.91419189 282.59149902 119.32838379 283.12049805 119.75512695 283.66552734 C120.6471824 284.79770561 121.54487242 285.92545685 122.44677734 287.04980469 C123.53633289 288.41782885 124.608161 289.80007117 125.66650391 291.19238281 C132.94063032 300.49502771 141.37939827 308.68063721 149.73730469 316.99804688 C152.36886133 319.61888633 154.98955998 322.25024182 157.609375 324.8828125 C165.76022446 333.04052941 173.83903595 340.97432831 183 348 C184.34149926 349.09506275 185.67902714 350.19501647 187.01171875 351.30078125 C195.3716465 358.16312557 203.86184687 364.81512546 212.58227539 371.21411133 C214.49020259 372.62343047 216.38450584 374.04702995 218.27514648 375.47924805 C227.15771996 382.16071984 236.32375675 387.99811982 245.9375 393.5625 C248.77549746 395.21914643 251.61056775 396.88076409 254.4453125 398.54296875 C255.1221962 398.93889221 255.7990799 399.33481567 256.49647522 399.74273682 C260.58510673 402.14182048 264.60130426 404.62155497 268.56274414 407.2265625 C302.561672 429.54147204 344.18346945 442.78625329 381.65710449 458.0065918 C385.70876684 459.65340547 389.75575793 461.31007683 393.79321289 462.99145508 C394.55622208 463.30855438 395.31923126 463.62565369 396.10536194 463.95236206 C397.51736581 464.54011537 398.92838573 465.13024167 400.33811951 465.72341919 C406.43132108 468.25782754 412.64373382 470.22024547 419 472 C419.33 473.65 419.66 475.3 420 477 C398.3371824 474.61073539 377.20866771 471.00710124 356 466 C355.2998175 465.835 354.59963501 465.67 353.87823486 465.5 C296.23222574 451.84791167 240.90720808 431.55390775 188 405 C186.25468994 404.12529053 186.25468994 404.12529053 184.47412109 403.23291016 C164.95653142 393.39558807 145.95115691 382.72106857 127.93408203 370.32617188 C125.80628272 368.86717088 123.66740921 367.4253191 121.52734375 365.984375 C102.69788157 353.26433803 84.44373402 340.02254416 67.76953125 324.5546875 C65.54081607 322.49886278 63.29232081 320.48383043 61 318.5 C57.07042195 315.09436569 53.24605376 311.57682336 49.4284668 308.046875 C46.61523952 305.45238004 43.75624916 302.94431068 40.8125 300.5 C36.78019668 297.00922502 33.57661393 292.96594004 30.26953125 288.796875 C28.18804746 286.23174179 26.01531158 283.83947572 23.75 281.4375 C17.13757135 274.16729049 11.6150265 266.04620222 6 258 C5.54979492 257.35901367 5.09958984 256.71802734 4.63574219 256.05761719 C-17.60367606 224.2307669 -32.95851439 189.49081434 -39 151 C-39.11053711 150.31292969 -39.22107422 149.62585938 -39.33496094 148.91796875 C-42.16182608 128.11385092 -41.36918027 104.48372207 -37 84 C-36.70198486 82.55705566 -36.70198486 82.55705566 -36.39794922 81.08496094 C-30.9309626 55.14646412 -21.87814721 30.76221941 -9.5625 7.3125 C-9.2325 6.68214844 -8.9025 6.05179688 -8.5625 5.40234375 C-6.06876106 0.79049181 -5.42759181 0 0 0 Z " fill="#6B9E4B" transform="translate(355,862)"/>
<path d="M0 0 C4.55172607 0.49207849 4.55172607 0.49207849 6.49169922 2.69018555 C8.18467769 5.28281573 9.5052895 7.90289183 10.8203125 10.70703125 C11.35132568 11.83923096 11.88233887 12.97143066 12.42944336 14.13793945 C12.99560052 15.36234417 13.5607629 16.58720929 14.125 17.8125 C14.41279327 18.43603363 14.70058655 19.05956726 14.99710083 19.70199585 C40.57025656 75.25991832 48.84296981 135.2395306 28 194 C17.31101803 222.31413301 1.29919986 247.94038586 -17.25219727 271.7434082 C-18.61063276 273.49728713 -19.94816181 275.26736714 -21.27709961 277.04370117 C-27.95136958 285.86911374 -35.32682122 293.73324316 -43.20776367 301.48901367 C-45.20313345 303.45288668 -47.18731976 305.42754243 -49.16992188 307.40429688 C-54.79102921 312.99083978 -60.40732346 318.53945635 -66.44848633 323.67602539 C-68.62720903 325.53522495 -70.67564819 327.52578931 -72.75 329.5 C-113.80665545 366.83448614 -167.18782753 396.97654527 -218 418.9375 C-219.81328008 419.72596462 -221.62651183 420.51454042 -223.43969727 421.30322266 C-228.61978189 423.55116588 -233.80789 425.77999165 -239 428 C-239.68116882 428.29171082 -240.36233765 428.58342163 -241.06414795 428.88397217 C-297.41364332 452.97882704 -358.91487899 470.64487095 -420 477 C-420 476.01 -420 475.02 -420 474 C-412.48364206 471.11284144 -404.94463872 468.31470765 -397.3359375 465.6796875 C-367.57905892 455.35304528 -338.37429303 443.70226936 -310 430 C-308.39125 429.23139648 -308.39125 429.23139648 -306.75 428.44726562 C-290.89850023 420.84863985 -275.84035745 412.41041635 -261 403 C-259.97487305 402.35627441 -258.94974609 401.71254883 -257.89355469 401.04931641 C-238.99388609 389.18120601 -220.53031037 376.82326385 -203 363 C-201.86402119 362.12013759 -200.727278 361.24126134 -199.58984375 360.36328125 C-188.40116453 351.69741759 -177.68984125 342.51917387 -167.21875 333 C-165.21482517 331.19364522 -163.17795013 329.43755585 -161.125 327.6875 C-153.54355255 321.07487849 -146.4049183 313.83860817 -139.89453125 306.171875 C-138.38067194 304.43639918 -136.84144694 302.7524765 -135.26171875 301.078125 C-124.97998336 290.17858868 -116.25599118 278.55195328 -107.88916016 266.14331055 C-104.96364137 261.81517519 -101.96642858 257.58718192 -98.7824707 253.44604492 C-78.58108239 227.03279388 -58.40374195 185.98670868 -59 152 C-59.87398437 152.38671875 -60.74796875 152.7734375 -61.6484375 153.171875 C-78.77252614 160.52554879 -96.19343727 162.7507525 -114.65307617 164.43798828 C-118.08964304 164.75248398 -121.52427136 165.08388591 -124.95898438 165.41796875 C-127.17178261 165.62857715 -129.38467045 165.83824669 -131.59765625 166.046875 C-132.61030045 166.14369568 -133.62294464 166.24051636 -134.66627502 166.340271 C-142.33220028 167.03488679 -149.98526215 167.70754656 -157.5625 166 C-158.40941406 165.814375 -159.25632812 165.62875 -160.12890625 165.4375 C-160.74636719 165.293125 -161.36382813 165.14875 -162 165 C-161.46791835 159.16252454 -159.72257439 154.62188279 -157.3125 149.3125 C-146.64690385 124.81660587 -142.70493304 99.4136088 -140 73 C-139.40388916 72.98541748 -138.80777832 72.97083496 -138.19360352 72.95581055 C-97.77692965 71.86700344 -47.78818179 67.59777758 -17 38 C-16.33871094 37.36707031 -15.67742187 36.73414063 -14.99609375 36.08203125 C-6.60579518 27.29305758 -2.25480765 15.87843353 -1.24609375 3.91796875 C-1 2 -1 2 0 0 Z " fill="#6B9E4B" transform="translate(1646,862)"/>
<path d="M0 0 C9.24954911 4.71915771 17.40773681 11.78724346 25.57568359 18.12304688 C29.93236106 21.49607168 34.30847688 24.84356167 38.6875 28.1875 C39.58065918 28.87021973 40.47381836 29.55293945 41.39404297 30.25634766 C46.36435978 34.04111793 51.38223148 37.73042629 56.5 41.3125 C73.25403327 53.15724567 88.14939434 67.76879904 101.51171875 83.30444336 C103.3386604 85.3858262 105.29705352 87.28945817 107.3125 89.1875 C112.33231328 94.15626433 116.56022515 99.6186431 120.73828125 105.28955078 C121.97091152 106.9605662 123.21931911 108.61887298 124.46875 110.27734375 C131.47994425 119.70849052 137.2882112 129.74414066 143 140 C143.53012695 140.94665527 144.06025391 141.89331055 144.60644531 142.86865234 C146.24627444 145.80356829 147.87540474 148.74412728 149.5 151.6875 C150.25676025 153.0497168 150.25676025 153.0497168 151.02880859 154.43945312 C158.58067591 168.25765456 158.58067591 168.25765456 158 176 C156.25 176.4375 154.5 176.875 152.75 177.3125 C151.64269531 177.59222656 150.53539062 177.87195313 149.39453125 178.16015625 C147.33488712 178.66973449 145.27064297 179.16174026 143.19921875 179.62109375 C112.86590297 186.52868051 83.51520282 202.84411187 60 223 C58.14845483 224.50323469 56.29425332 226.00320304 54.4375 227.5 C47.31506467 233.32837341 40.42295886 239.40344766 34 246 C33.49484863 246.4854126 32.98969727 246.9708252 32.46923828 247.47094727 C28.02471888 251.77661506 24.25085827 256.35279706 20.5625 261.3125 C19.43162046 262.80907068 18.30011164 264.30516605 17.16796875 265.80078125 C16.35658447 266.87706787 16.35658447 266.87706787 15.52880859 267.97509766 C13.49705299 270.66615179 11.44997469 273.34203797 9.375 276 C8.78460937 276.763125 8.19421875 277.52625 7.5859375 278.3125 C6 280 6 280 3 281 C3 250.31 3 219.62 3 188 C6.63 186.02 10.26 184.04 14 182 C19.90674126 174.36197251 22.08976251 168.68114603 21 159 C18.76589472 151.69217898 14.73949014 146.63101755 8 143 C3.92861581 141.80700941 -0.0977465 141.74214244 -4.3125 141.6875 C-5.04662109 141.65849609 -5.78074219 141.62949219 -6.53710938 141.59960938 C-12.177898 141.5345426 -15.36686584 142.75911688 -20 146 C-21.71930965 147.61112554 -21.71930965 147.61112554 -22.8125 149.375 C-23.19019531 149.91898438 -23.56789063 150.46296875 -23.95703125 151.0234375 C-26.564144 155.96425791 -27.2942393 160.44874768 -27.3125 166 C-27.33763672 167.7634375 -27.33763672 167.7634375 -27.36328125 169.5625 C-26.96365296 173.34392901 -25.84738968 175.70743713 -24 179 C-23.67 179.99 -23.34 180.98 -23 182 C-18.4588303 184.27058485 -13.71404521 186.11438192 -9 188 C-9 218.69 -9 249.38 -9 281 C-14 280 -14 280 -15.49462891 278.42456055 C-15.90116699 277.75207275 -16.30770508 277.07958496 -16.7265625 276.38671875 C-17.19553955 275.63890137 -17.6645166 274.89108398 -18.14770508 274.12060547 C-18.6352124 273.31768066 -19.12271973 272.51475586 -19.625 271.6875 C-24.76457985 263.58988282 -30.33610929 256.87611653 -37 250 C-38.19777561 248.63394186 -39.38648716 247.25983755 -40.5625 245.875 C-47.11025488 238.34038255 -54.30767516 231.35794196 -62 225 C-63.00546875 224.16726563 -64.0109375 223.33453125 -65.046875 222.4765625 C-90.46938624 201.77405986 -120.13873605 187.62152118 -151.83276367 179.80151367 C-153.09967041 179.48158447 -154.36657715 179.16165527 -155.671875 178.83203125 C-157.39035645 178.41014526 -157.39035645 178.41014526 -159.14355469 177.97973633 C-161.96522852 177.01192632 -163.38320507 176.49733771 -165 174 C-164.92422838 168.18202623 -162.12422557 162.34763973 -159.625 157.1875 C-159.27977295 156.46739746 -158.9345459 155.74729492 -158.57885742 155.00537109 C-145.78830723 128.9788979 -128.28974554 105.26100401 -109.28222656 83.47753906 C-108.24665918 82.28423103 -107.22634556 81.0776958 -106.2109375 79.8671875 C-98.27018437 70.46044918 -89.26408918 61.5086794 -79.8515625 53.578125 C-77.69414048 51.73930961 -75.63851859 49.80521127 -73.5625 47.875 C-57.96461193 33.82499396 -40.1925491 21.90003386 -22.9375 10 C-22.17646973 9.47212891 -21.41543945 8.94425781 -20.63134766 8.40039062 C-16.90422502 5.8497814 -13.12712304 3.38595002 -9.25390625 1.0625 C-8.20891968 0.43021484 -8.20891968 0.43021484 -7.14282227 -0.21484375 C-4.38142052 -1.22665508 -2.78778391 -0.82325357 0 0 Z " fill="#B5D455" transform="translate(1002,450)"/>
<path d="M0 0 C1.32084091 0.33288025 1.32084091 0.33288025 2.66836548 0.67248535 C25.39114087 6.43683323 45.98917288 14.75416668 66.97491455 25.18476868 C71.94501827 27.65084533 76.93575099 30.07171783 81.93547058 32.47715759 C85.95779297 34.41249319 89.97639988 36.35547853 93.99478149 38.29898071 C95.97230718 39.25379578 97.95109734 40.20599716 99.9312439 41.15536499 C111.31165269 46.61757911 122.15761497 52.26625885 132.5625 59.4375 C133.27462646 59.91437256 133.98675293 60.39124512 134.72045898 60.88256836 C143.9032917 67.07206721 152.31646729 74.06484991 160.5625 81.4375 C161.14483398 81.95666992 161.72716797 82.47583984 162.32714844 83.01074219 C168.13312157 88.21065038 173.84325268 93.41856678 178.84765625 99.4140625 C180.88124837 101.81360855 183.03513092 104.08143551 185.1875 106.375 C209.74039026 133.32695129 209.74039026 133.32695129 212.5625 147.4375 C215.65153131 145.89298434 216.14197757 143.28806339 217.5625 140.1875 C221.28087908 132.42276686 226.12252611 126.06667749 231.5625 119.4375 C232.25988281 118.54804687 232.95726562 117.65859375 233.67578125 116.7421875 C240.46283184 108.17848901 247.99937579 100.31080804 255.5625 92.4375 C256.16288086 91.8084375 256.76326172 91.179375 257.38183594 90.53125 C272.52713878 74.72454366 289.56484935 62.35116523 308.65625 51.6875 C312.50982931 49.50273014 316.25637115 47.15877685 320.00854492 44.80517578 C352.84467191 24.21115173 386.52869758 11.84920639 423.69161987 1.39614868 C425.79478574 0.80408954 427.89712102 0.20907104 429.99856567 -0.3890686 C452.14687364 -6.67328808 464.39692986 -7.36376431 484.75024414 3.85083008 C494.15480621 9.13117392 503.34968389 14.72392111 512.47338867 20.47290039 C520.54691796 25.52257312 528.84543456 30.14097403 537.21435547 34.68139648 C547.39668705 40.26454158 547.39668705 40.26454158 551.5625 44.4375 C551.5625 45.4275 551.5625 46.4175 551.5625 47.4375 C550.60400146 47.55754395 549.64550293 47.67758789 548.65795898 47.80126953 C463.318455 58.56895377 377.31528938 84.62978693 291.5625 150.4375 C290.42974659 151.37116545 289.2969306 152.30475497 288.1640625 153.23828125 C274.791817 164.35415413 263.0867875 176.5312342 255.5625 192.4375 C250.53362419 191.06269942 248.26613128 187.97382823 245.3125 183.9375 C244.34516486 182.66199742 243.37508447 181.38857242 242.40234375 180.1171875 C241.92394043 179.49038086 241.44553711 178.86357422 240.95263672 178.21777344 C237.72336026 174.08221251 234.15920901 170.25239173 230.5625 166.4375 C229.86125 165.68339844 229.16 164.92929688 228.4375 164.15234375 C223.8781822 159.3944193 220.16526318 155.57345333 213.25 155.3125 C208.0434244 156.90094679 204.64268707 159.92360224 200.5625 163.4375 C199.94117188 163.93765625 199.31984375 164.4378125 198.6796875 164.953125 C191.06462168 171.16811145 185.35172942 178.9175906 179.578125 186.80078125 C177.99774152 188.86814336 176.46356296 190.67480555 174.5625 192.4375 C170.02639593 188.97556608 167.30637733 185.85890847 164.375 180.875 C160.24465152 174.1385772 155.47791697 168.49231463 149.95654297 162.86230469 C148.59202945 161.46768107 147.250769 160.05042657 145.91015625 158.6328125 C114.3504392 125.91451553 68.08433666 102.30812524 26.5625 85.4375 C25.74813477 85.10621094 24.93376953 84.77492188 24.09472656 84.43359375 C17.96476691 81.96863643 11.77901285 79.67419887 5.5625 77.4375 C4.94828186 77.21622437 4.33406372 76.99494873 3.70123291 76.76696777 C-17.11000408 69.28503836 -37.92950817 62.65127327 -59.4375 57.4375 C-60.42556641 57.18919434 -61.41363281 56.94088867 -62.43164062 56.68505859 C-77.99154512 52.81652962 -93.67656604 51.180304 -109.61499023 49.78027344 C-110.8637368 49.6665464 -110.8637368 49.6665464 -112.13771057 49.55052185 C-113.71694978 49.40776131 -115.29690995 49.27270943 -116.87754822 49.14637756 C-122.21376802 48.66123198 -122.21376802 48.66123198 -124.4375 46.4375 C-118.27187116 40.52461538 -111.93830232 36.04210748 -104.5 31.875 C-103.46439941 31.28275635 -102.42879883 30.6905127 -101.36181641 30.08032227 C-99.17118024 28.82799052 -96.9780957 27.57993288 -94.78271484 26.3359375 C-90.3709966 23.83225037 -85.97667703 21.29897623 -81.58349609 18.76293945 C-79.40675731 17.50657873 -77.22869976 16.25250004 -75.04931641 15.00073242 C-69.74457284 11.94952577 -64.46338027 8.8671121 -59.22265625 5.70703125 C-58.23604004 5.11414307 -57.24942383 4.52125488 -56.23291016 3.91040039 C-54.39329619 2.80138315 -52.55795517 1.6852307 -50.72802734 0.56030273 C-33.57719473 -9.76785069 -18.38837767 -4.65675887 0 0 Z " fill="#4998D1" transform="translate(786.4375,1349.5625)"/>
<path d="M0 0 C2.29126228 9.47055078 3.15030812 18.74190345 3.203125 28.4765625 C3.21009399 29.35263153 3.21706299 30.22870056 3.22424316 31.13131714 C3.2415921 33.96259404 3.24796926 36.79367206 3.25 39.625 C3.25100708 40.59687256 3.25201416 41.56874512 3.25305176 42.57006836 C3.20958941 104.87462657 -13.21017025 160.95394838 -54 209 C-54.84904135 210.03271697 -55.69663546 211.06662506 -56.54296875 212.1015625 C-66.31105534 223.96803162 -76.91954052 234.48157086 -89 244 C-90.10764439 244.91795401 -91.21299738 245.83867784 -92.31640625 246.76171875 C-159.89231817 302.84898265 -254.06115207 328.87652091 -400 344 C-400.845625 344.02723145 -401.69125 344.05446289 -402.5625 344.08251953 C-421.08511677 344.63694274 -439.44234399 342.84401045 -457.86859131 341.19000244 C-461.07450491 340.90421426 -464.28136519 340.62974734 -467.48828125 340.35546875 C-472.65966801 339.91249218 -477.83011368 339.46014695 -483 339 C-483 337.68 -483 336.36 -483 335 C-482.04262939 334.91024902 -481.08525879 334.82049805 -480.09887695 334.72802734 C-418.39113111 328.87445995 -357.53588773 317.1864277 -298.96484375 296.68621826 C-297.15925172 296.05561839 -295.35122194 295.43200993 -293.54296875 294.80908203 C-250.78021833 279.99788656 -210.6732193 257.45689768 -178 226 C-177.2570166 225.28956543 -176.5140332 224.57913086 -175.74853516 223.84716797 C-164.40068322 212.94187555 -154.04680634 201.88785478 -145 189 C-144.56042969 188.38914551 -144.12085938 187.77829102 -143.66796875 187.14892578 C-130.62253815 168.97498565 -121.89459909 148.83188955 -114 128 C-114.825 128.26554687 -115.65 128.53109375 -116.5 128.8046875 C-150.87916951 139.31796032 -189.52547404 135.31451875 -225 134 C-224.49037583 129.68627045 -223.61910601 126.89374839 -221.12109375 123.34765625 C-220.2396167 122.07148437 -220.2396167 122.07148437 -219.34033203 120.76953125 C-218.71239746 119.87621094 -218.08446289 118.98289062 -217.4375 118.0625 C-202.95846092 96.83193726 -194.87988912 74.36721393 -187 50 C-186.21391357 49.98541748 -185.42782715 49.97083496 -184.61791992 49.95581055 C-125.11573454 48.74218039 -62.09072265 44.60992868 -13.2421875 7.13671875 C-3.81585121 0 -3.81585121 0 0 0 Z " fill="#0C864D" transform="translate(1874,1003)"/>
<path d="M0 0 C3.20029955 0.61000307 5.21147211 1.66739723 7.80078125 3.625 C8.52265625 4.16229736 9.24453125 4.69959473 9.98828125 5.25317383 C10.75527344 5.82962646 11.52226562 6.4060791 12.3125 7 C58.25827164 40.73450094 113.83507314 48.13921602 169.5 49.5625 C171.11328823 49.60586098 172.72656955 49.64947962 174.33984375 49.69335938 C178.22648977 49.79852714 182.11321094 49.90026474 186 50 C187.55797412 54.62359748 189.08696179 59.2533406 190.54296875 63.91015625 C193.8923531 74.48919741 197.71507631 84.3676135 202.99707031 94.12792969 C203.99486016 95.99040597 204.95079308 97.86939776 205.8984375 99.7578125 C209.81203368 107.45869515 214.21684077 114.54159282 219.4074707 121.45898438 C222.49430736 125.70606671 223.68132129 128.73841102 224 134 C189.29703194 135.8313426 153.89032809 136.89274667 119.703125 129.55078125 C116.96984472 128.90017258 116.96984472 128.90017258 114 129 C126.90715534 174.78118083 159.44598689 212.92750881 196 242 C197.11625741 242.9289817 198.23074075 243.8600979 199.34375 244.79296875 C209.0001064 252.81608146 219.20505913 259.60387391 230 266 C230.77939941 266.4626123 231.55879883 266.92522461 232.36181641 267.40185547 C254.9702357 280.66188403 279.30552756 290.382325 304 299 C304.9585791 299.33950684 305.9171582 299.67901367 306.90478516 300.02880859 C356.4727811 317.41517832 409.69957639 327.03723437 461.79064941 332.75732422 C464.21980813 333.0241438 466.64849381 333.29503793 469.07714844 333.56640625 C473.38444616 334.04719001 477.69211507 334.52450764 482 335 C482 336.32 482 337.64 482 339 C467.06034469 340.87733266 452.15366838 342.31098338 437.125 343.1875 C436.41514954 343.23001892 435.70529907 343.27253784 434.97393799 343.31634521 C411.89007576 344.68035213 411.89007576 344.68035213 402.25390625 343.24951172 C397.22845543 342.69318473 392.14909544 342.72776601 387.09790039 342.61294556 C313.05991112 340.83264769 236.33416555 324.66430585 169.36767578 292.60888672 C165.92272985 290.96308465 162.46139526 289.35634947 158.99609375 287.75390625 C139.2823667 278.55591475 120.30881995 268.24228996 103 255 C102.43410156 254.57009766 101.86820312 254.14019531 101.28515625 253.69726562 C92.75952221 247.19385881 84.57029652 240.32718852 76.48779297 233.28369141 C75.22713344 232.19597434 73.94576825 231.13232679 72.66015625 230.07421875 C67.92618916 226.1464322 64.15202977 221.73427216 60.328125 216.921875 C58.06613997 214.08300788 55.7306786 211.32379213 53.375 208.5625 C7.18493387 153.09125236 -7.41917497 90.75684233 -3.125 19.375 C-3.06632751 18.35244614 -3.06632751 18.35244614 -3.00646973 17.30923462 C-2.8916389 15.35920545 -2.76247918 13.41003638 -2.6328125 11.4609375 C-2.55949707 10.33478027 -2.48618164 9.20862305 -2.41064453 8.04833984 C-2.00817823 5.06070951 -1.25078819 2.72985952 0 0 Z " fill="#0C864D" transform="translate(127,1003)"/>
<path d="M0 0 C7.4543901 0.35217591 14.55803305 2.68626468 21.57421875 5.04296875 C22.943256 5.5019178 22.943256 5.5019178 24.33995056 5.97013855 C33.79480627 9.19262007 43.0515217 12.86310529 52.28442383 16.66918945 C55.06094577 17.81186036 57.84352793 18.93871878 60.62695312 20.06445312 C76.90655437 26.70327093 92.81848833 34.13444296 107.875 43.25 C108.77444336 43.78882813 109.67388672 44.32765625 110.60058594 44.8828125 C131.50010789 57.47620719 152.01857888 70.50743993 170.40820312 86.61865234 C172.07376151 88.0640096 173.76017662 89.48138175 175.453125 90.89453125 C187.44904092 100.94270362 198.39896989 111.60348923 208 124 C208.62132812 124.77730469 209.24265625 125.55460938 209.8828125 126.35546875 C214 131.61206395 214 131.61206395 214 135 C221.15407022 129.40299212 226.73216241 122.6261018 232.54248047 115.71289062 C235.30477533 112.46661579 238.18532893 109.32777502 241.0625 106.18359375 C242.43210599 104.64002571 243.7481781 103.04816724 245.0234375 101.42578125 C246.7840767 99.26499678 248.50145079 97.53920317 250.625 95.75 C253.63052284 93.1895363 256.54660951 90.56397139 259.4375 87.875 C302.06156263 49.54588108 374.7374004 5.82625996 433 0 C444.09320197 23.19259006 454.37111092 48.83707377 453 75 C452.40388916 75.12004395 451.80777832 75.24008789 451.19360352 75.36376953 C443.78576368 76.86296682 436.39073459 78.41876094 429 80 C427.96407715 80.21930176 426.9281543 80.43860352 425.86083984 80.66455078 C365.23453475 93.67888063 302.05215754 125.40705173 256.4609375 167.72265625 C254.26040554 169.75902154 252.02271297 171.73261853 249.75 173.6875 C236.30313875 185.44327525 224.83961186 199.421033 218 216 C216.68 216 215.36 216 214 216 C213.30777344 214.49373047 213.30777344 214.49373047 212.6015625 212.95703125 C208.05277785 203.31915306 202.8678754 195.13413993 196 187 C195.2575 186.10539063 194.515 185.21078125 193.75 184.2890625 C189.24661957 179.0619245 184.40445917 174.64298818 178.96875 170.3984375 C176.48227075 168.389624 174.11974225 166.32176892 171.75 164.1796875 C167.18698762 160.0993379 162.41742353 156.39078473 157.5 152.75 C156.63052734 152.10377686 155.76105469 151.45755371 154.86523438 150.79174805 C152.24872409 148.85393687 149.62572767 146.92529762 147 145 C146.25621094 144.45230957 145.51242187 143.90461914 144.74609375 143.34033203 C133.58972236 135.16053395 122.01817498 127.8473494 110 121 C109.21270508 120.54802246 108.42541016 120.09604492 107.61425781 119.63037109 C68.21892789 97.27152139 23.37626906 82.92243481 -21 75 C-21.31278615 66.96487126 -20.46763046 59.60594765 -18.8125 51.75 C-18.58328857 50.64736816 -18.35407715 49.54473633 -18.11791992 48.40869141 C-9.86194995 9.86194995 -9.86194995 9.86194995 0 0 Z " fill="#8AB049" transform="translate(784,756)"/>
<path d="M0 0 C18.21847421 4.65108289 36.60672238 10.82361713 53.09863281 19.95068359 C55.18591153 21.10259987 57.29112131 22.21722539 59.3984375 23.33203125 C89.34323598 39.35873495 118.92341473 62.07405281 141.125 87.84375 C143.17359094 90.19962958 145.27203002 92.5050746 147.375 94.8125 C150.3908983 98.14665893 153.26411876 101.54453501 156.0625 105.0625 C162.56905945 113.12598617 169.84226708 120.5180538 177 128 C177.68964844 127.17757812 178.37929688 126.35515625 179.08984375 125.5078125 C184.1944398 119.43822299 189.35988148 113.45429327 194.70556641 107.59423828 C196.87009621 105.14687781 198.89498277 102.6349804 200.91796875 100.0703125 C206.1917808 93.60253192 211.96450612 87.69832955 217.87280273 81.81152344 C219.67649619 80.01098457 221.46642983 78.19751439 223.25585938 76.3828125 C230.56295084 69.0355241 238.15671596 62.39729161 246.43984985 56.17303467 C248.67796792 54.49025427 250.89091346 52.77497675 253.109375 51.06640625 C270.96136736 37.52448901 288.90971045 25.9720626 309 16 C309.77762695 15.60796387 310.55525391 15.21592773 311.35644531 14.81201172 C319.57237881 10.68198877 327.89871773 7.15118817 336.5625 4.0625 C337.38387451 3.76754639 338.20524902 3.47259277 339.05151367 3.16870117 C344.05875153 1.44847021 348.72518986 0.47733104 354 0 C367.53908978 20.48467484 378.716222 41.1337278 385 65 C383.82308594 65.20753906 382.64617187 65.41507813 381.43359375 65.62890625 C351.89566488 71.05082878 323.4076698 81.71478686 297 96 C296.3100293 96.36770508 295.62005859 96.73541016 294.90917969 97.11425781 C271.8307906 109.4480215 250.40765317 123.53167322 231.44482422 141.63623047 C229.21364449 143.74224094 226.91819329 145.77448912 224.625 147.8125 C217.93757695 153.81929679 211.78844241 160.12358393 206 167 C205.29133789 167.83797119 205.29133789 167.83797119 204.56835938 168.69287109 C194.85781329 180.22638961 185.60627065 191.86244793 180 206 C176.83965287 205.70134177 175.37397475 205.39212121 173.1484375 203.05859375 C172.27058594 201.76115234 172.27058594 201.76115234 171.375 200.4375 C170.69050781 199.44492187 170.00601563 198.45234375 169.30078125 197.4296875 C168.53367048 196.28658158 167.7667545 195.14334492 167 194 C165.19288351 191.35047344 163.3776261 188.70654416 161.5625 186.0625 C160.85746338 185.03419067 160.85746338 185.03419067 160.13818359 183.98510742 C147.49593193 165.59300794 133.27391181 150.32348348 115.890625 136.3671875 C113.82161999 134.67284015 111.80054518 132.96318637 109.796875 131.1953125 C72.59342573 98.39788922 22.17974862 74.54310838 -26.84106445 66.44946289 C-29 66 -29 66 -30 65 C-29.98372642 58.11627615 -28.32269358 52.10526692 -25.6875 45.8125 C-25.34066162 44.96880859 -24.99382324 44.12511719 -24.63647461 43.25585938 C-18.18089395 27.962431 -10.81944472 12.704651 0 0 Z " fill="#AED14D" transform="translate(824,653)"/>
<path d="M0 0 C1 1 1 1 1.0625 3.5625 C1.041875 4.366875 1.02125 5.17125 1 6 C0.42894531 6.17273437 -0.14210938 6.34546875 -0.73046875 6.5234375 C-22.22741717 13.97389021 -38.10423545 35.40250549 -48 55 C-49.15612555 57.65596411 -50.1164525 60.23891406 -51 63 C-56.09288974 62.51496288 -58.8466442 60.90430259 -63 58 C-128.64039029 12.25063707 -214.98442692 -7.71221997 -319.6875 -15.1875 C-321.635354 -15.1862915 -321.635354 -15.1862915 -323.62255859 -15.18505859 C-337.33532076 -15.09847312 -350.68047594 -13.89192354 -364.16796875 -11.44140625 C-369.41220885 -10.62402814 -374.70581891 -10.32448207 -380 -10 C-375.66031151 -20.20167609 -362.06063561 -27.66395889 -353.44042969 -34.15527344 C-350.86050337 -36.10544584 -348.29242845 -38.07043204 -345.7265625 -40.0390625 C-337.09237703 -46.65948929 -328.44137467 -53.22644005 -319.54296875 -59.48828125 C-316.81232973 -61.41101089 -314.11570831 -63.37619322 -311.42578125 -65.35546875 C-310.63002686 -65.93852783 -309.83427246 -66.52158691 -309.0144043 -67.12231445 C-307.46949405 -68.2555433 -305.92775636 -69.39311561 -304.38989258 -70.53588867 C-242.84170799 -115.52489573 -101.23540457 -55.06444923 0 0 Z " fill="#3D3F94" transform="translate(900,1489)"/>
<path d="M0 0 C4.01473763 2.98858414 8.04214054 5.95991104 12.07080078 8.9296875 C12.85213379 9.50630127 13.6334668 10.08291504 14.43847656 10.67700195 C19.89264161 14.69577142 25.38166464 18.66376221 30.88330078 22.6171875 C56.00242922 40.70687126 56.00242922 40.70687126 61.50830078 46.8671875 C61.50830078 47.8571875 61.50830078 48.8471875 61.50830078 49.8671875 C58.94522274 49.60117818 56.38289417 49.3299362 53.82080078 49.0546875 C53.00627441 48.96848145 52.19174805 48.88227539 51.35253906 48.79345703 C47.13084395 48.33009046 42.94602235 47.79981368 38.76220703 47.06640625 C-42.75226747 32.98301414 -141.26720651 59.68665631 -248.37060547 113.5703125 C-250.0759911 114.67182281 -251.78302989 115.7707778 -253.49169922 116.8671875 C-254.39388184 117.44662109 -255.29606445 118.02605469 -256.22558594 118.62304688 C-257.10617676 119.17283203 -257.98676758 119.72261719 -258.89404297 120.2890625 C-260.0753479 121.0330127 -260.0753479 121.0330127 -261.28051758 121.79199219 C-263.49169922 122.8671875 -263.49169922 122.8671875 -267.49169922 122.8671875 C-267.75982422 122.06796875 -268.02794922 121.26875 -268.30419922 120.4453125 C-275.63120814 99.91040592 -292.04183227 79.14866837 -311.49169922 68.8671875 C-314.14395212 67.69633535 -316.72637123 66.7541795 -319.49169922 65.8671875 C-319.76904297 63.61328125 -319.76904297 63.61328125 -319.49169922 60.8671875 C-272.26970201 7.72923539 -156.3279917 -14.51676631 -88.38427734 -19.96679688 C-82.41928127 -20.30914979 -76.44953965 -20.48076348 -70.47729492 -20.63549805 C-68.19355112 -20.69493895 -65.91002623 -20.76012758 -63.62646484 -20.82617188 C-35.39320486 -21.61632553 -22.62575314 -16.85891867 0 0 Z " fill="#3D3F94" transform="translate(1418.49169921875,1429.1328125)"/>
<path d="M0 0 C9.21526555 2.57776964 17.38165638 7.1384301 25.8125 11.5625 C27.32715613 12.35152188 28.84212781 13.13993833 30.35742188 13.92773438 C33.12674551 15.36805777 35.89398876 16.81223627 38.65942383 18.26000977 C41.0964794 19.52938746 43.5360342 20.78418383 46 22 C45.7550588 30.4764135 43.26973196 37.59970356 40.1875 45.4375 C39.69605374 46.70987007 39.20484725 47.98233277 38.71386719 49.25488281 C34.4748639 60.14793906 29.77198099 70.81867475 24.921875 81.453125 C21.45062148 89.23096044 18.24295866 97.12424326 15 105 C28.2 105 41.4 105 55 105 C54.98839844 100.12605469 54.97679687 95.25210937 54.96484375 90.23046875 C54.95973503 87.14518096 54.95492111 84.05989838 54.95117188 80.97460938 C54.94519103 76.0760795 54.93811091 71.17756828 54.92456055 66.27905273 C54.91370582 62.33036914 54.90771766 58.38170556 54.90512276 54.43300819 C54.90327318 52.92550656 54.8996615 51.41800605 54.89426994 49.91051292 C54.88702523 47.80123897 54.88601051 45.69204804 54.88647461 43.58276367 C54.884254 42.38141281 54.88203339 41.18006195 54.87974548 39.94230652 C55 37 55 37 56 34 C61.28538519 34.41997813 64.35862372 36.37488653 68.3125 39.6875 C68.90643555 40.17009277 69.50037109 40.65268555 70.11230469 41.14990234 C71.39965882 42.19899295 72.68254679 43.25358266 73.96142578 44.31298828 C76.0773264 46.06399107 78.20716631 47.79682563 80.33984375 49.52734375 C107.1020083 71.3060249 107.1020083 71.3060249 110 80 C110 105.41 110 130.82 110 157 C52.91 157 -4.18 157 -63 157 C-63 146.88097801 -63 146.88097801 -60.30859375 140.92578125 C-60.01625351 140.26472885 -59.72391327 139.60367645 -59.42271423 138.92259216 C-58.78151047 137.47744219 -58.13280269 136.03560345 -57.47747803 134.59680176 C-56.02465581 131.4056917 -54.6096847 128.19818561 -53.19140625 124.99160767 C-52.40843198 123.22237265 -51.62354373 121.45398365 -50.83691406 119.68637085 C-45.54062944 107.76881712 -40.47096958 95.75416814 -35.375 83.75 C-33.8865573 80.24868761 -32.39755512 76.74761351 -30.90852356 73.24655151 C-29.94505097 70.98097019 -28.98182115 68.71528562 -28.0188446 66.44949341 C-25.26470259 59.96967995 -22.50318734 53.49308767 -19.734375 47.01953125 C-14.1493715 33.94809413 -8.64403385 20.86272194 -3.57275391 7.58032227 C-3.2432373 6.71850342 -2.9137207 5.85668457 -2.57421875 4.96875 C-2.29151123 4.22044922 -2.00880371 3.47214844 -1.7175293 2.70117188 C-1 1 -1 1 0 0 Z " fill="#287C4D" transform="translate(832,1068)"/>
<path d="M0 0 C0.34144043 0.69335449 0.68288086 1.38670898 1.03466797 2.10107422 C6.81965592 13.82415366 12.59742465 25.51547776 19.05273438 36.88720703 C23.01280346 43.9117652 26.69212126 51.07775069 30.375 58.25 C35.34059083 67.91661321 40.40932889 77.51407307 45.65185547 87.03417969 C49.70968811 94.41924427 53.6073049 101.88121227 57.4831543 109.36303711 C61.54571641 117.18305191 65.7381628 124.92715136 69.9921875 132.64453125 C71.33814328 135.09104757 72.67002128 137.54477307 74 140 C74.62648438 141.11979248 74.62648438 141.11979248 75.265625 142.26220703 C78.08946937 147.50251755 78.08946937 147.50251755 77.59960938 150.22631836 C77.30280273 151.10429077 77.30280273 151.10429077 77 152 C69.6199985 152.06949629 62.2400675 152.12280914 54.85980511 152.15543652 C51.43286777 152.17109574 48.00615423 152.19233804 44.5793457 152.22631836 C40.64016392 152.26513514 36.70107291 152.27970716 32.76171875 152.29296875 C31.53039719 152.30845261 30.29907562 152.32393646 29.03044128 152.33988953 C27.88948502 152.34011612 26.74852875 152.34034271 25.57299805 152.34057617 C24.567061 152.34723801 23.56112396 152.35389984 22.52470398 152.36076355 C19.57622392 151.93944519 18.76773487 151.34303588 17 149 C15.85618415 146.90693492 14.78488236 144.77401247 13.75 142.625 C9.82217542 134.58663908 5.74163211 126.6303497 1.625 118.6875 C1.29957214 118.05922302 0.97414429 117.43094604 0.63885498 116.78363037 C-3.43037991 108.92931869 -7.51140629 101.08118803 -11.625 93.25 C-12.19033447 92.17238403 -12.19033447 92.17238403 -12.76708984 91.07299805 C-15.11309419 86.62235 -17.55017902 82.23464154 -20.06005859 77.87402344 C-21 76 -21 76 -21 74 C-26.14696064 76.27442144 -29.95521139 79.25642855 -34.125 82.9375 C-34.73214844 83.46279297 -35.33929687 83.98808594 -35.96484375 84.52929688 C-37.1370334 85.54953602 -38.30180653 86.57837601 -39.45800781 87.61669922 C-40.74143069 88.76804089 -42.05122697 89.88990006 -43.3671875 91.00390625 C-45.47826024 93.58466742 -45.70244724 95.72691965 -46 99 C-45.10796875 98.95359375 -44.2159375 98.9071875 -43.296875 98.859375 C-42.12640625 98.82328125 -40.9559375 98.7871875 -39.75 98.75 C-38.58984375 98.70359375 -37.4296875 98.6571875 -36.234375 98.609375 C-33 99 -33 99 -30.640625 100.328125 C-25.28781814 109.04555332 -28.11538256 123.79074854 -28.4375 133.6875 C-28.7159375 142.7521875 -28.7159375 142.7521875 -29 152 C-52.76 152 -76.52 152 -101 152 C-102.17094355 148.48716935 -102.14863443 145.68571818 -102.17700195 141.97753906 C-102.18357315 141.26658081 -102.19014435 140.55562256 -102.19691467 139.82312012 C-102.21662181 137.47062062 -102.22830525 135.11818493 -102.23828125 132.765625 C-102.24235678 131.96070366 -102.2464323 131.15578232 -102.25063133 130.32646942 C-102.27148235 126.06497963 -102.28578751 121.80352194 -102.29516602 117.54199219 C-102.3062207 113.14932867 -102.34061212 108.75717308 -102.38033772 104.36468887 C-102.40653559 100.97938115 -102.4148607 97.59419381 -102.41844749 94.20879364 C-102.4233063 92.59013188 -102.43490016 90.97147525 -102.45348549 89.3529129 C-102.47794283 87.08155061 -102.47690053 84.81149385 -102.4699707 82.54003906 C-102.47583694 81.25002991 -102.48170319 79.96002075 -102.48774719 78.63092041 C-101.65734742 72.44920266 -98.4506566 68.06763214 -94.05859375 63.6953125 C-92.9444812 62.57987061 -92.9444812 62.57987061 -91.80786133 61.44189453 C-91.02564209 60.67731934 -90.24342285 59.91274414 -89.4375 59.125 C-88.62756592 58.32562012 -87.81763184 57.52624023 -86.9831543 56.70263672 C-81.23624805 51.08259755 -75.36352148 45.91314621 -69 41 C-67.87518302 40.08891854 -66.75295498 39.174635 -65.6328125 38.2578125 C-18.26547092 -0.40589935 -18.26547092 -0.40589935 0 0 Z " fill="#297C4D" transform="translate(1155,1073)"/>
<path d="M0 0 C0 43.56 0 87.12 0 132 C-17.16 132 -34.32 132 -52 132 C-52 88.77 -52 45.54 -52 1 C-36.49372887 -6.75313557 -17.33653817 0 0 0 Z " fill="#297C4D" transform="translate(1024,1093)"/>
</svg>
